<mxfile host="app.diagrams.net" modified="2020-06-24T19:50:43.156Z" agent="5.0 (Macintosh)" etag="PjHgJvZbXaY_E_fET6Y1" version="13.3.4" type="github">
  <diagram id="y1kWOpUGHuxIJ3yEuqZ7" name="Page-1">
    <mxGraphModel dx="1773" dy="1713" grid="1" gridSize="10" guides="1" tooltips="1" connect="1" arrows="1" fold="1" page="1" pageScale="1" pageWidth="827" pageHeight="1169" math="0" shadow="0">
      <root>
        <mxCell id="0" />
        <mxCell id="1" parent="0" />
        <mxCell id="LMLSj2MRwrwGWkM6ZcZf-3" value="" style="fontColor=#0066CC;verticalAlign=top;verticalLabelPosition=bottom;labelPosition=center;align=center;html=1;outlineConnect=0;fillColor=#CCCCCC;strokeColor=#6881B3;gradientDirection=north;strokeWidth=2;shape=mxgraph.networks.switch;" parent="1" vertex="1">
          <mxGeometry x="105" y="-480" width="170" height="40" as="geometry" />
        </mxCell>
        <mxCell id="LMLSj2MRwrwGWkM6ZcZf-53" value="" style="group" parent="1" vertex="1" connectable="0">
          <mxGeometry x="70" y="-360" width="240" height="260" as="geometry" />
        </mxCell>
        <mxCell id="LMLSj2MRwrwGWkM6ZcZf-52" value="" style="rounded=0;whiteSpace=wrap;html=1;dashed=1;shadow=0;glass=0;" parent="LMLSj2MRwrwGWkM6ZcZf-53" vertex="1">
          <mxGeometry width="240" height="260" as="geometry" />
        </mxCell>
        <mxCell id="LMLSj2MRwrwGWkM6ZcZf-4" value="" style="verticalLabelPosition=bottom;aspect=fixed;html=1;verticalAlign=top;strokeColor=none;align=center;outlineConnect=0;shape=mxgraph.citrix.switch;" parent="LMLSj2MRwrwGWkM6ZcZf-53" vertex="1">
          <mxGeometry x="10" y="120" width="40" height="18.04" as="geometry" />
        </mxCell>
        <mxCell id="LMLSj2MRwrwGWkM6ZcZf-7" value="" style="fontColor=#0066CC;verticalAlign=top;verticalLabelPosition=bottom;labelPosition=center;align=center;html=1;outlineConnect=0;fillColor=#CCCCCC;strokeColor=#6881B3;gradientDirection=north;strokeWidth=2;shape=mxgraph.networks.server;" parent="LMLSj2MRwrwGWkM6ZcZf-53" vertex="1">
          <mxGeometry x="10" y="180" width="40" height="70" as="geometry" />
        </mxCell>
        <mxCell id="LMLSj2MRwrwGWkM6ZcZf-8" value="" style="fontColor=#0066CC;verticalAlign=top;verticalLabelPosition=bottom;labelPosition=center;align=center;html=1;outlineConnect=0;fillColor=#CCCCCC;strokeColor=#6881B3;gradientDirection=north;strokeWidth=2;shape=mxgraph.networks.server;" parent="LMLSj2MRwrwGWkM6ZcZf-53" vertex="1">
          <mxGeometry x="70" y="180" width="40" height="70" as="geometry" />
        </mxCell>
        <mxCell id="LMLSj2MRwrwGWkM6ZcZf-9" value="" style="fontColor=#0066CC;verticalAlign=top;verticalLabelPosition=bottom;labelPosition=center;align=center;html=1;outlineConnect=0;fillColor=#CCCCCC;strokeColor=#6881B3;gradientDirection=north;strokeWidth=2;shape=mxgraph.networks.server;" parent="LMLSj2MRwrwGWkM6ZcZf-53" vertex="1">
          <mxGeometry x="130" y="180" width="40" height="70" as="geometry" />
        </mxCell>
        <mxCell id="LMLSj2MRwrwGWkM6ZcZf-19" value="" style="fontColor=#0066CC;verticalAlign=top;verticalLabelPosition=bottom;labelPosition=center;align=center;html=1;outlineConnect=0;fillColor=#CCCCCC;strokeColor=#6881B3;gradientDirection=north;strokeWidth=2;shape=mxgraph.networks.server;" parent="LMLSj2MRwrwGWkM6ZcZf-53" vertex="1">
          <mxGeometry x="190" y="179" width="40" height="70" as="geometry" />
        </mxCell>
        <mxCell id="LMLSj2MRwrwGWkM6ZcZf-24" value="" style="verticalLabelPosition=bottom;aspect=fixed;html=1;verticalAlign=top;strokeColor=none;align=center;outlineConnect=0;shape=mxgraph.citrix.switch;" parent="LMLSj2MRwrwGWkM6ZcZf-53" vertex="1">
          <mxGeometry x="70" y="120" width="40" height="18.04" as="geometry" />
        </mxCell>
        <mxCell id="LMLSj2MRwrwGWkM6ZcZf-25" value="" style="verticalLabelPosition=bottom;aspect=fixed;html=1;verticalAlign=top;strokeColor=none;align=center;outlineConnect=0;shape=mxgraph.citrix.switch;" parent="LMLSj2MRwrwGWkM6ZcZf-53" vertex="1">
          <mxGeometry x="130" y="120" width="40" height="18.04" as="geometry" />
        </mxCell>
        <mxCell id="LMLSj2MRwrwGWkM6ZcZf-26" value="" style="verticalLabelPosition=bottom;aspect=fixed;html=1;verticalAlign=top;strokeColor=none;align=center;outlineConnect=0;shape=mxgraph.citrix.switch;" parent="LMLSj2MRwrwGWkM6ZcZf-53" vertex="1">
          <mxGeometry x="190" y="120" width="40" height="18.04" as="geometry" />
        </mxCell>
        <mxCell id="LMLSj2MRwrwGWkM6ZcZf-27" value="" style="verticalLabelPosition=bottom;aspect=fixed;html=1;verticalAlign=top;strokeColor=none;align=center;outlineConnect=0;shape=mxgraph.citrix.switch;" parent="LMLSj2MRwrwGWkM6ZcZf-53" vertex="1">
          <mxGeometry x="10" y="10" width="40" height="18.04" as="geometry" />
        </mxCell>
        <mxCell id="LMLSj2MRwrwGWkM6ZcZf-28" value="" style="verticalLabelPosition=bottom;aspect=fixed;html=1;verticalAlign=top;strokeColor=none;align=center;outlineConnect=0;shape=mxgraph.citrix.switch;" parent="LMLSj2MRwrwGWkM6ZcZf-53" vertex="1">
          <mxGeometry x="70" y="10" width="40" height="18.04" as="geometry" />
        </mxCell>
        <mxCell id="LMLSj2MRwrwGWkM6ZcZf-29" value="" style="verticalLabelPosition=bottom;aspect=fixed;html=1;verticalAlign=top;strokeColor=none;align=center;outlineConnect=0;shape=mxgraph.citrix.switch;" parent="LMLSj2MRwrwGWkM6ZcZf-53" vertex="1">
          <mxGeometry x="130" y="10" width="40" height="18.04" as="geometry" />
        </mxCell>
        <mxCell id="LMLSj2MRwrwGWkM6ZcZf-30" value="" style="verticalLabelPosition=bottom;aspect=fixed;html=1;verticalAlign=top;strokeColor=none;align=center;outlineConnect=0;shape=mxgraph.citrix.switch;" parent="LMLSj2MRwrwGWkM6ZcZf-53" vertex="1">
          <mxGeometry x="190" y="10" width="40" height="18.04" as="geometry" />
        </mxCell>
        <mxCell id="LMLSj2MRwrwGWkM6ZcZf-32" value="" style="endArrow=none;html=1;" parent="LMLSj2MRwrwGWkM6ZcZf-53" source="LMLSj2MRwrwGWkM6ZcZf-4" edge="1">
          <mxGeometry width="50" height="50" relative="1" as="geometry">
            <mxPoint x="-20" y="78.04000000000002" as="sourcePoint" />
            <mxPoint x="30" y="28.04000000000002" as="targetPoint" />
          </mxGeometry>
        </mxCell>
        <mxCell id="LMLSj2MRwrwGWkM6ZcZf-33" value="" style="endArrow=none;html=1;" parent="LMLSj2MRwrwGWkM6ZcZf-53" edge="1">
          <mxGeometry width="50" height="50" relative="1" as="geometry">
            <mxPoint x="89.58" y="120" as="sourcePoint" />
            <mxPoint x="89.58" y="28.039999999999964" as="targetPoint" />
          </mxGeometry>
        </mxCell>
        <mxCell id="LMLSj2MRwrwGWkM6ZcZf-34" value="" style="endArrow=none;html=1;" parent="LMLSj2MRwrwGWkM6ZcZf-53" edge="1">
          <mxGeometry width="50" height="50" relative="1" as="geometry">
            <mxPoint x="149.58000000000004" y="120" as="sourcePoint" />
            <mxPoint x="149.58000000000004" y="28.039999999999964" as="targetPoint" />
          </mxGeometry>
        </mxCell>
        <mxCell id="LMLSj2MRwrwGWkM6ZcZf-35" value="" style="endArrow=none;html=1;" parent="LMLSj2MRwrwGWkM6ZcZf-53" edge="1">
          <mxGeometry width="50" height="50" relative="1" as="geometry">
            <mxPoint x="209.58000000000004" y="120" as="sourcePoint" />
            <mxPoint x="209.58000000000004" y="28.039999999999964" as="targetPoint" />
          </mxGeometry>
        </mxCell>
        <mxCell id="LMLSj2MRwrwGWkM6ZcZf-36" value="" style="endArrow=none;html=1;" parent="LMLSj2MRwrwGWkM6ZcZf-53" edge="1">
          <mxGeometry width="50" height="50" relative="1" as="geometry">
            <mxPoint x="90" y="120" as="sourcePoint" />
            <mxPoint x="30" y="28.04000000000002" as="targetPoint" />
          </mxGeometry>
        </mxCell>
        <mxCell id="LMLSj2MRwrwGWkM6ZcZf-37" value="" style="endArrow=none;html=1;" parent="LMLSj2MRwrwGWkM6ZcZf-53" edge="1">
          <mxGeometry width="50" height="50" relative="1" as="geometry">
            <mxPoint x="150" y="120" as="sourcePoint" />
            <mxPoint x="90" y="28.039999999999964" as="targetPoint" />
          </mxGeometry>
        </mxCell>
        <mxCell id="LMLSj2MRwrwGWkM6ZcZf-38" value="" style="endArrow=none;html=1;" parent="LMLSj2MRwrwGWkM6ZcZf-53" edge="1">
          <mxGeometry width="50" height="50" relative="1" as="geometry">
            <mxPoint x="210" y="120" as="sourcePoint" />
            <mxPoint x="150" y="28.039999999999964" as="targetPoint" />
          </mxGeometry>
        </mxCell>
        <mxCell id="LMLSj2MRwrwGWkM6ZcZf-39" value="" style="endArrow=none;html=1;" parent="LMLSj2MRwrwGWkM6ZcZf-53" edge="1">
          <mxGeometry width="50" height="50" relative="1" as="geometry">
            <mxPoint x="30" y="120" as="sourcePoint" />
            <mxPoint x="90" y="30" as="targetPoint" />
          </mxGeometry>
        </mxCell>
        <mxCell id="LMLSj2MRwrwGWkM6ZcZf-40" value="" style="endArrow=none;html=1;" parent="LMLSj2MRwrwGWkM6ZcZf-53" edge="1">
          <mxGeometry width="50" height="50" relative="1" as="geometry">
            <mxPoint x="90" y="118.03999999999999" as="sourcePoint" />
            <mxPoint x="150" y="28.04000000000002" as="targetPoint" />
          </mxGeometry>
        </mxCell>
        <mxCell id="LMLSj2MRwrwGWkM6ZcZf-41" value="" style="endArrow=none;html=1;" parent="LMLSj2MRwrwGWkM6ZcZf-53" edge="1">
          <mxGeometry width="50" height="50" relative="1" as="geometry">
            <mxPoint x="150" y="118.03999999999996" as="sourcePoint" />
            <mxPoint x="210" y="28.039999999999964" as="targetPoint" />
          </mxGeometry>
        </mxCell>
        <mxCell id="LMLSj2MRwrwGWkM6ZcZf-42" value="" style="endArrow=none;html=1;exitX=0.5;exitY=0;exitDx=0;exitDy=0;exitPerimeter=0;" parent="LMLSj2MRwrwGWkM6ZcZf-53" source="LMLSj2MRwrwGWkM6ZcZf-25" edge="1">
          <mxGeometry width="50" height="50" relative="1" as="geometry">
            <mxPoint x="-20" y="78.04000000000002" as="sourcePoint" />
            <mxPoint x="30" y="28.04000000000002" as="targetPoint" />
          </mxGeometry>
        </mxCell>
        <mxCell id="LMLSj2MRwrwGWkM6ZcZf-43" value="" style="endArrow=none;html=1;exitX=0.5;exitY=0;exitDx=0;exitDy=0;exitPerimeter=0;" parent="LMLSj2MRwrwGWkM6ZcZf-53" edge="1">
          <mxGeometry width="50" height="50" relative="1" as="geometry">
            <mxPoint x="210" y="120" as="sourcePoint" />
            <mxPoint x="90" y="28.039999999999964" as="targetPoint" />
          </mxGeometry>
        </mxCell>
        <mxCell id="LMLSj2MRwrwGWkM6ZcZf-44" value="" style="endArrow=none;html=1;" parent="LMLSj2MRwrwGWkM6ZcZf-53" edge="1">
          <mxGeometry width="50" height="50" relative="1" as="geometry">
            <mxPoint x="30" y="120" as="sourcePoint" />
            <mxPoint x="150" y="30" as="targetPoint" />
          </mxGeometry>
        </mxCell>
        <mxCell id="LMLSj2MRwrwGWkM6ZcZf-45" value="" style="endArrow=none;html=1;" parent="LMLSj2MRwrwGWkM6ZcZf-53" edge="1">
          <mxGeometry width="50" height="50" relative="1" as="geometry">
            <mxPoint x="90" y="120" as="sourcePoint" />
            <mxPoint x="210" y="30" as="targetPoint" />
          </mxGeometry>
        </mxCell>
        <mxCell id="LMLSj2MRwrwGWkM6ZcZf-46" value="" style="endArrow=none;html=1;" parent="LMLSj2MRwrwGWkM6ZcZf-53" edge="1">
          <mxGeometry width="50" height="50" relative="1" as="geometry">
            <mxPoint x="210" y="120" as="sourcePoint" />
            <mxPoint x="30" y="28.04000000000002" as="targetPoint" />
          </mxGeometry>
        </mxCell>
        <mxCell id="LMLSj2MRwrwGWkM6ZcZf-47" value="" style="endArrow=none;html=1;" parent="LMLSj2MRwrwGWkM6ZcZf-53" edge="1">
          <mxGeometry width="50" height="50" relative="1" as="geometry">
            <mxPoint x="30" y="120" as="sourcePoint" />
            <mxPoint x="210" y="28.04000000000002" as="targetPoint" />
          </mxGeometry>
        </mxCell>
        <mxCell id="LMLSj2MRwrwGWkM6ZcZf-48" value="" style="shape=link;html=1;exitX=0.5;exitY=0;exitDx=0;exitDy=0;exitPerimeter=0;" parent="LMLSj2MRwrwGWkM6ZcZf-53" source="LMLSj2MRwrwGWkM6ZcZf-7" edge="1">
          <mxGeometry width="50" height="50" relative="1" as="geometry">
            <mxPoint x="-20" y="188.04000000000002" as="sourcePoint" />
            <mxPoint x="30" y="138.04000000000002" as="targetPoint" />
          </mxGeometry>
        </mxCell>
        <mxCell id="LMLSj2MRwrwGWkM6ZcZf-49" value="" style="shape=link;html=1;exitX=0.5;exitY=0;exitDx=0;exitDy=0;exitPerimeter=0;" parent="LMLSj2MRwrwGWkM6ZcZf-53" edge="1">
          <mxGeometry width="50" height="50" relative="1" as="geometry">
            <mxPoint x="89.58" y="180" as="sourcePoint" />
            <mxPoint x="89.58" y="138.03999999999996" as="targetPoint" />
          </mxGeometry>
        </mxCell>
        <mxCell id="LMLSj2MRwrwGWkM6ZcZf-50" value="" style="shape=link;html=1;exitX=0.5;exitY=0;exitDx=0;exitDy=0;exitPerimeter=0;" parent="LMLSj2MRwrwGWkM6ZcZf-53" edge="1">
          <mxGeometry width="50" height="50" relative="1" as="geometry">
            <mxPoint x="149.58000000000004" y="178" as="sourcePoint" />
            <mxPoint x="149.58000000000004" y="136.03999999999996" as="targetPoint" />
          </mxGeometry>
        </mxCell>
        <mxCell id="LMLSj2MRwrwGWkM6ZcZf-51" value="" style="shape=link;html=1;exitX=0.5;exitY=0;exitDx=0;exitDy=0;exitPerimeter=0;" parent="LMLSj2MRwrwGWkM6ZcZf-53" edge="1">
          <mxGeometry width="50" height="50" relative="1" as="geometry">
            <mxPoint x="209.58000000000004" y="178" as="sourcePoint" />
            <mxPoint x="209.58000000000004" y="136.03999999999996" as="targetPoint" />
          </mxGeometry>
        </mxCell>
        <mxCell id="rLoegdF59TgYcEcmEnVo-1" value="" style="group" vertex="1" connectable="0" parent="1">
          <mxGeometry x="340" y="-360" width="240" height="260" as="geometry" />
        </mxCell>
        <mxCell id="rLoegdF59TgYcEcmEnVo-2" value="" style="rounded=0;whiteSpace=wrap;html=1;dashed=1;shadow=0;glass=0;" vertex="1" parent="rLoegdF59TgYcEcmEnVo-1">
          <mxGeometry width="240" height="260" as="geometry" />
        </mxCell>
        <mxCell id="rLoegdF59TgYcEcmEnVo-3" value="" style="verticalLabelPosition=bottom;aspect=fixed;html=1;verticalAlign=top;strokeColor=none;align=center;outlineConnect=0;shape=mxgraph.citrix.switch;" vertex="1" parent="rLoegdF59TgYcEcmEnVo-1">
          <mxGeometry x="10" y="120" width="40" height="18.04" as="geometry" />
        </mxCell>
        <mxCell id="rLoegdF59TgYcEcmEnVo-4" value="" style="fontColor=#0066CC;verticalAlign=top;verticalLabelPosition=bottom;labelPosition=center;align=center;html=1;outlineConnect=0;fillColor=#CCCCCC;strokeColor=#6881B3;gradientDirection=north;strokeWidth=2;shape=mxgraph.networks.server;" vertex="1" parent="rLoegdF59TgYcEcmEnVo-1">
          <mxGeometry x="10" y="180" width="40" height="70" as="geometry" />
        </mxCell>
        <mxCell id="rLoegdF59TgYcEcmEnVo-5" value="" style="fontColor=#0066CC;verticalAlign=top;verticalLabelPosition=bottom;labelPosition=center;align=center;html=1;outlineConnect=0;fillColor=#CCCCCC;strokeColor=#6881B3;gradientDirection=north;strokeWidth=2;shape=mxgraph.networks.server;" vertex="1" parent="rLoegdF59TgYcEcmEnVo-1">
          <mxGeometry x="70" y="180" width="40" height="70" as="geometry" />
        </mxCell>
        <mxCell id="rLoegdF59TgYcEcmEnVo-6" value="" style="fontColor=#0066CC;verticalAlign=top;verticalLabelPosition=bottom;labelPosition=center;align=center;html=1;outlineConnect=0;fillColor=#CCCCCC;strokeColor=#6881B3;gradientDirection=north;strokeWidth=2;shape=mxgraph.networks.server;" vertex="1" parent="rLoegdF59TgYcEcmEnVo-1">
          <mxGeometry x="130" y="180" width="40" height="70" as="geometry" />
        </mxCell>
        <mxCell id="rLoegdF59TgYcEcmEnVo-7" value="" style="fontColor=#0066CC;verticalAlign=top;verticalLabelPosition=bottom;labelPosition=center;align=center;html=1;outlineConnect=0;fillColor=#CCCCCC;strokeColor=#6881B3;gradientDirection=north;strokeWidth=2;shape=mxgraph.networks.server;" vertex="1" parent="rLoegdF59TgYcEcmEnVo-1">
          <mxGeometry x="190" y="179" width="40" height="70" as="geometry" />
        </mxCell>
        <mxCell id="rLoegdF59TgYcEcmEnVo-8" value="" style="verticalLabelPosition=bottom;aspect=fixed;html=1;verticalAlign=top;strokeColor=none;align=center;outlineConnect=0;shape=mxgraph.citrix.switch;" vertex="1" parent="rLoegdF59TgYcEcmEnVo-1">
          <mxGeometry x="70" y="120" width="40" height="18.04" as="geometry" />
        </mxCell>
        <mxCell id="rLoegdF59TgYcEcmEnVo-9" value="" style="verticalLabelPosition=bottom;aspect=fixed;html=1;verticalAlign=top;strokeColor=none;align=center;outlineConnect=0;shape=mxgraph.citrix.switch;" vertex="1" parent="rLoegdF59TgYcEcmEnVo-1">
          <mxGeometry x="130" y="120" width="40" height="18.04" as="geometry" />
        </mxCell>
        <mxCell id="rLoegdF59TgYcEcmEnVo-10" value="" style="verticalLabelPosition=bottom;aspect=fixed;html=1;verticalAlign=top;strokeColor=none;align=center;outlineConnect=0;shape=mxgraph.citrix.switch;" vertex="1" parent="rLoegdF59TgYcEcmEnVo-1">
          <mxGeometry x="190" y="120" width="40" height="18.04" as="geometry" />
        </mxCell>
        <mxCell id="rLoegdF59TgYcEcmEnVo-11" value="" style="verticalLabelPosition=bottom;aspect=fixed;html=1;verticalAlign=top;strokeColor=none;align=center;outlineConnect=0;shape=mxgraph.citrix.switch;" vertex="1" parent="rLoegdF59TgYcEcmEnVo-1">
          <mxGeometry x="10" y="10" width="40" height="18.04" as="geometry" />
        </mxCell>
        <mxCell id="rLoegdF59TgYcEcmEnVo-12" value="" style="verticalLabelPosition=bottom;aspect=fixed;html=1;verticalAlign=top;strokeColor=none;align=center;outlineConnect=0;shape=mxgraph.citrix.switch;" vertex="1" parent="rLoegdF59TgYcEcmEnVo-1">
          <mxGeometry x="70" y="10" width="40" height="18.04" as="geometry" />
        </mxCell>
        <mxCell id="rLoegdF59TgYcEcmEnVo-13" value="" style="verticalLabelPosition=bottom;aspect=fixed;html=1;verticalAlign=top;strokeColor=none;align=center;outlineConnect=0;shape=mxgraph.citrix.switch;" vertex="1" parent="rLoegdF59TgYcEcmEnVo-1">
          <mxGeometry x="130" y="10" width="40" height="18.04" as="geometry" />
        </mxCell>
        <mxCell id="rLoegdF59TgYcEcmEnVo-14" value="" style="verticalLabelPosition=bottom;aspect=fixed;html=1;verticalAlign=top;strokeColor=none;align=center;outlineConnect=0;shape=mxgraph.citrix.switch;" vertex="1" parent="rLoegdF59TgYcEcmEnVo-1">
          <mxGeometry x="190" y="10" width="40" height="18.04" as="geometry" />
        </mxCell>
        <mxCell id="rLoegdF59TgYcEcmEnVo-15" value="" style="endArrow=none;html=1;" edge="1" parent="rLoegdF59TgYcEcmEnVo-1" source="rLoegdF59TgYcEcmEnVo-3">
          <mxGeometry width="50" height="50" relative="1" as="geometry">
            <mxPoint x="-20" y="78.04000000000002" as="sourcePoint" />
            <mxPoint x="30" y="28.04000000000002" as="targetPoint" />
          </mxGeometry>
        </mxCell>
        <mxCell id="rLoegdF59TgYcEcmEnVo-16" value="" style="endArrow=none;html=1;" edge="1" parent="rLoegdF59TgYcEcmEnVo-1">
          <mxGeometry width="50" height="50" relative="1" as="geometry">
            <mxPoint x="89.58" y="120" as="sourcePoint" />
            <mxPoint x="89.58" y="28.039999999999964" as="targetPoint" />
          </mxGeometry>
        </mxCell>
        <mxCell id="rLoegdF59TgYcEcmEnVo-17" value="" style="endArrow=none;html=1;" edge="1" parent="rLoegdF59TgYcEcmEnVo-1">
          <mxGeometry width="50" height="50" relative="1" as="geometry">
            <mxPoint x="149.58000000000004" y="120" as="sourcePoint" />
            <mxPoint x="149.58000000000004" y="28.039999999999964" as="targetPoint" />
          </mxGeometry>
        </mxCell>
        <mxCell id="rLoegdF59TgYcEcmEnVo-18" value="" style="endArrow=none;html=1;" edge="1" parent="rLoegdF59TgYcEcmEnVo-1">
          <mxGeometry width="50" height="50" relative="1" as="geometry">
            <mxPoint x="209.58000000000004" y="120" as="sourcePoint" />
            <mxPoint x="209.58000000000004" y="28.039999999999964" as="targetPoint" />
          </mxGeometry>
        </mxCell>
        <mxCell id="rLoegdF59TgYcEcmEnVo-19" value="" style="endArrow=none;html=1;" edge="1" parent="rLoegdF59TgYcEcmEnVo-1">
          <mxGeometry width="50" height="50" relative="1" as="geometry">
            <mxPoint x="90" y="120" as="sourcePoint" />
            <mxPoint x="30" y="28.04000000000002" as="targetPoint" />
          </mxGeometry>
        </mxCell>
        <mxCell id="rLoegdF59TgYcEcmEnVo-20" value="" style="endArrow=none;html=1;" edge="1" parent="rLoegdF59TgYcEcmEnVo-1">
          <mxGeometry width="50" height="50" relative="1" as="geometry">
            <mxPoint x="150" y="120" as="sourcePoint" />
            <mxPoint x="90" y="28.039999999999964" as="targetPoint" />
          </mxGeometry>
        </mxCell>
        <mxCell id="rLoegdF59TgYcEcmEnVo-21" value="" style="endArrow=none;html=1;" edge="1" parent="rLoegdF59TgYcEcmEnVo-1">
          <mxGeometry width="50" height="50" relative="1" as="geometry">
            <mxPoint x="210" y="120" as="sourcePoint" />
            <mxPoint x="150" y="28.039999999999964" as="targetPoint" />
          </mxGeometry>
        </mxCell>
        <mxCell id="rLoegdF59TgYcEcmEnVo-22" value="" style="endArrow=none;html=1;" edge="1" parent="rLoegdF59TgYcEcmEnVo-1">
          <mxGeometry width="50" height="50" relative="1" as="geometry">
            <mxPoint x="30" y="120" as="sourcePoint" />
            <mxPoint x="90" y="30" as="targetPoint" />
          </mxGeometry>
        </mxCell>
        <mxCell id="rLoegdF59TgYcEcmEnVo-23" value="" style="endArrow=none;html=1;" edge="1" parent="rLoegdF59TgYcEcmEnVo-1">
          <mxGeometry width="50" height="50" relative="1" as="geometry">
            <mxPoint x="90" y="118.03999999999999" as="sourcePoint" />
            <mxPoint x="150" y="28.04000000000002" as="targetPoint" />
          </mxGeometry>
        </mxCell>
        <mxCell id="rLoegdF59TgYcEcmEnVo-24" value="" style="endArrow=none;html=1;" edge="1" parent="rLoegdF59TgYcEcmEnVo-1">
          <mxGeometry width="50" height="50" relative="1" as="geometry">
            <mxPoint x="150" y="118.03999999999996" as="sourcePoint" />
            <mxPoint x="210" y="28.039999999999964" as="targetPoint" />
          </mxGeometry>
        </mxCell>
        <mxCell id="rLoegdF59TgYcEcmEnVo-25" value="" style="endArrow=none;html=1;exitX=0.5;exitY=0;exitDx=0;exitDy=0;exitPerimeter=0;" edge="1" parent="rLoegdF59TgYcEcmEnVo-1" source="rLoegdF59TgYcEcmEnVo-9">
          <mxGeometry width="50" height="50" relative="1" as="geometry">
            <mxPoint x="-20" y="78.04000000000002" as="sourcePoint" />
            <mxPoint x="30" y="28.04000000000002" as="targetPoint" />
          </mxGeometry>
        </mxCell>
        <mxCell id="rLoegdF59TgYcEcmEnVo-26" value="" style="endArrow=none;html=1;exitX=0.5;exitY=0;exitDx=0;exitDy=0;exitPerimeter=0;" edge="1" parent="rLoegdF59TgYcEcmEnVo-1">
          <mxGeometry width="50" height="50" relative="1" as="geometry">
            <mxPoint x="210" y="120" as="sourcePoint" />
            <mxPoint x="90" y="28.039999999999964" as="targetPoint" />
          </mxGeometry>
        </mxCell>
        <mxCell id="rLoegdF59TgYcEcmEnVo-27" value="" style="endArrow=none;html=1;" edge="1" parent="rLoegdF59TgYcEcmEnVo-1">
          <mxGeometry width="50" height="50" relative="1" as="geometry">
            <mxPoint x="30" y="120" as="sourcePoint" />
            <mxPoint x="150" y="30" as="targetPoint" />
          </mxGeometry>
        </mxCell>
        <mxCell id="rLoegdF59TgYcEcmEnVo-28" value="" style="endArrow=none;html=1;" edge="1" parent="rLoegdF59TgYcEcmEnVo-1">
          <mxGeometry width="50" height="50" relative="1" as="geometry">
            <mxPoint x="90" y="120" as="sourcePoint" />
            <mxPoint x="210" y="30" as="targetPoint" />
          </mxGeometry>
        </mxCell>
        <mxCell id="rLoegdF59TgYcEcmEnVo-29" value="" style="endArrow=none;html=1;" edge="1" parent="rLoegdF59TgYcEcmEnVo-1">
          <mxGeometry width="50" height="50" relative="1" as="geometry">
            <mxPoint x="210" y="120" as="sourcePoint" />
            <mxPoint x="30" y="28.04000000000002" as="targetPoint" />
          </mxGeometry>
        </mxCell>
        <mxCell id="rLoegdF59TgYcEcmEnVo-30" value="" style="endArrow=none;html=1;" edge="1" parent="rLoegdF59TgYcEcmEnVo-1">
          <mxGeometry width="50" height="50" relative="1" as="geometry">
            <mxPoint x="30" y="120" as="sourcePoint" />
            <mxPoint x="210" y="28.04000000000002" as="targetPoint" />
          </mxGeometry>
        </mxCell>
        <mxCell id="rLoegdF59TgYcEcmEnVo-31" value="" style="shape=link;html=1;exitX=0.5;exitY=0;exitDx=0;exitDy=0;exitPerimeter=0;" edge="1" parent="rLoegdF59TgYcEcmEnVo-1" source="rLoegdF59TgYcEcmEnVo-4">
          <mxGeometry width="50" height="50" relative="1" as="geometry">
            <mxPoint x="-20" y="188.04000000000002" as="sourcePoint" />
            <mxPoint x="30" y="138.04000000000002" as="targetPoint" />
          </mxGeometry>
        </mxCell>
        <mxCell id="rLoegdF59TgYcEcmEnVo-32" value="" style="shape=link;html=1;exitX=0.5;exitY=0;exitDx=0;exitDy=0;exitPerimeter=0;" edge="1" parent="rLoegdF59TgYcEcmEnVo-1">
          <mxGeometry width="50" height="50" relative="1" as="geometry">
            <mxPoint x="89.58" y="180" as="sourcePoint" />
            <mxPoint x="89.58" y="138.03999999999996" as="targetPoint" />
          </mxGeometry>
        </mxCell>
        <mxCell id="rLoegdF59TgYcEcmEnVo-33" value="" style="shape=link;html=1;exitX=0.5;exitY=0;exitDx=0;exitDy=0;exitPerimeter=0;" edge="1" parent="rLoegdF59TgYcEcmEnVo-1">
          <mxGeometry width="50" height="50" relative="1" as="geometry">
            <mxPoint x="149.58000000000004" y="178" as="sourcePoint" />
            <mxPoint x="149.58000000000004" y="136.03999999999996" as="targetPoint" />
          </mxGeometry>
        </mxCell>
        <mxCell id="rLoegdF59TgYcEcmEnVo-34" value="" style="shape=link;html=1;exitX=0.5;exitY=0;exitDx=0;exitDy=0;exitPerimeter=0;" edge="1" parent="rLoegdF59TgYcEcmEnVo-1">
          <mxGeometry width="50" height="50" relative="1" as="geometry">
            <mxPoint x="209.58000000000004" y="178" as="sourcePoint" />
            <mxPoint x="209.58000000000004" y="136.03999999999996" as="targetPoint" />
          </mxGeometry>
        </mxCell>
        <mxCell id="rLoegdF59TgYcEcmEnVo-35" value="" style="group" vertex="1" connectable="0" parent="1">
          <mxGeometry x="630" y="-360" width="240" height="260" as="geometry" />
        </mxCell>
        <mxCell id="rLoegdF59TgYcEcmEnVo-36" value="" style="rounded=0;whiteSpace=wrap;html=1;dashed=1;shadow=0;glass=0;" vertex="1" parent="rLoegdF59TgYcEcmEnVo-35">
          <mxGeometry width="240" height="260" as="geometry" />
        </mxCell>
        <mxCell id="rLoegdF59TgYcEcmEnVo-37" value="" style="verticalLabelPosition=bottom;aspect=fixed;html=1;verticalAlign=top;strokeColor=none;align=center;outlineConnect=0;shape=mxgraph.citrix.switch;" vertex="1" parent="rLoegdF59TgYcEcmEnVo-35">
          <mxGeometry x="10" y="120" width="40" height="18.04" as="geometry" />
        </mxCell>
        <mxCell id="rLoegdF59TgYcEcmEnVo-38" value="" style="fontColor=#0066CC;verticalAlign=top;verticalLabelPosition=bottom;labelPosition=center;align=center;html=1;outlineConnect=0;fillColor=#CCCCCC;strokeColor=#6881B3;gradientDirection=north;strokeWidth=2;shape=mxgraph.networks.server;" vertex="1" parent="rLoegdF59TgYcEcmEnVo-35">
          <mxGeometry x="10" y="180" width="40" height="70" as="geometry" />
        </mxCell>
        <mxCell id="rLoegdF59TgYcEcmEnVo-39" value="" style="fontColor=#0066CC;verticalAlign=top;verticalLabelPosition=bottom;labelPosition=center;align=center;html=1;outlineConnect=0;fillColor=#CCCCCC;strokeColor=#6881B3;gradientDirection=north;strokeWidth=2;shape=mxgraph.networks.server;" vertex="1" parent="rLoegdF59TgYcEcmEnVo-35">
          <mxGeometry x="70" y="180" width="40" height="70" as="geometry" />
        </mxCell>
        <mxCell id="rLoegdF59TgYcEcmEnVo-40" value="" style="fontColor=#0066CC;verticalAlign=top;verticalLabelPosition=bottom;labelPosition=center;align=center;html=1;outlineConnect=0;fillColor=#CCCCCC;strokeColor=#6881B3;gradientDirection=north;strokeWidth=2;shape=mxgraph.networks.server;" vertex="1" parent="rLoegdF59TgYcEcmEnVo-35">
          <mxGeometry x="130" y="180" width="40" height="70" as="geometry" />
        </mxCell>
        <mxCell id="rLoegdF59TgYcEcmEnVo-41" value="" style="fontColor=#0066CC;verticalAlign=top;verticalLabelPosition=bottom;labelPosition=center;align=center;html=1;outlineConnect=0;fillColor=#CCCCCC;strokeColor=#6881B3;gradientDirection=north;strokeWidth=2;shape=mxgraph.networks.server;" vertex="1" parent="rLoegdF59TgYcEcmEnVo-35">
          <mxGeometry x="190" y="179" width="40" height="70" as="geometry" />
        </mxCell>
        <mxCell id="rLoegdF59TgYcEcmEnVo-42" value="" style="verticalLabelPosition=bottom;aspect=fixed;html=1;verticalAlign=top;strokeColor=none;align=center;outlineConnect=0;shape=mxgraph.citrix.switch;" vertex="1" parent="rLoegdF59TgYcEcmEnVo-35">
          <mxGeometry x="70" y="120" width="40" height="18.04" as="geometry" />
        </mxCell>
        <mxCell id="rLoegdF59TgYcEcmEnVo-43" value="" style="verticalLabelPosition=bottom;aspect=fixed;html=1;verticalAlign=top;strokeColor=none;align=center;outlineConnect=0;shape=mxgraph.citrix.switch;" vertex="1" parent="rLoegdF59TgYcEcmEnVo-35">
          <mxGeometry x="130" y="120" width="40" height="18.04" as="geometry" />
        </mxCell>
        <mxCell id="rLoegdF59TgYcEcmEnVo-44" value="" style="verticalLabelPosition=bottom;aspect=fixed;html=1;verticalAlign=top;strokeColor=none;align=center;outlineConnect=0;shape=mxgraph.citrix.switch;" vertex="1" parent="rLoegdF59TgYcEcmEnVo-35">
          <mxGeometry x="190" y="120" width="40" height="18.04" as="geometry" />
        </mxCell>
        <mxCell id="rLoegdF59TgYcEcmEnVo-45" value="" style="verticalLabelPosition=bottom;aspect=fixed;html=1;verticalAlign=top;strokeColor=none;align=center;outlineConnect=0;shape=mxgraph.citrix.switch;" vertex="1" parent="rLoegdF59TgYcEcmEnVo-35">
          <mxGeometry x="10" y="10" width="40" height="18.04" as="geometry" />
        </mxCell>
        <mxCell id="rLoegdF59TgYcEcmEnVo-46" value="" style="verticalLabelPosition=bottom;aspect=fixed;html=1;verticalAlign=top;strokeColor=none;align=center;outlineConnect=0;shape=mxgraph.citrix.switch;" vertex="1" parent="rLoegdF59TgYcEcmEnVo-35">
          <mxGeometry x="70" y="10" width="40" height="18.04" as="geometry" />
        </mxCell>
        <mxCell id="rLoegdF59TgYcEcmEnVo-47" value="" style="verticalLabelPosition=bottom;aspect=fixed;html=1;verticalAlign=top;strokeColor=none;align=center;outlineConnect=0;shape=mxgraph.citrix.switch;" vertex="1" parent="rLoegdF59TgYcEcmEnVo-35">
          <mxGeometry x="130" y="10" width="40" height="18.04" as="geometry" />
        </mxCell>
        <mxCell id="rLoegdF59TgYcEcmEnVo-48" value="" style="verticalLabelPosition=bottom;aspect=fixed;html=1;verticalAlign=top;strokeColor=none;align=center;outlineConnect=0;shape=mxgraph.citrix.switch;" vertex="1" parent="rLoegdF59TgYcEcmEnVo-35">
          <mxGeometry x="190" y="10" width="40" height="18.04" as="geometry" />
        </mxCell>
        <mxCell id="rLoegdF59TgYcEcmEnVo-49" value="" style="endArrow=none;html=1;" edge="1" parent="rLoegdF59TgYcEcmEnVo-35" source="rLoegdF59TgYcEcmEnVo-37">
          <mxGeometry width="50" height="50" relative="1" as="geometry">
            <mxPoint x="-20" y="78.04000000000002" as="sourcePoint" />
            <mxPoint x="30" y="28.04000000000002" as="targetPoint" />
          </mxGeometry>
        </mxCell>
        <mxCell id="rLoegdF59TgYcEcmEnVo-50" value="" style="endArrow=none;html=1;" edge="1" parent="rLoegdF59TgYcEcmEnVo-35">
          <mxGeometry width="50" height="50" relative="1" as="geometry">
            <mxPoint x="89.58" y="120" as="sourcePoint" />
            <mxPoint x="89.58" y="28.039999999999964" as="targetPoint" />
          </mxGeometry>
        </mxCell>
        <mxCell id="rLoegdF59TgYcEcmEnVo-51" value="" style="endArrow=none;html=1;" edge="1" parent="rLoegdF59TgYcEcmEnVo-35">
          <mxGeometry width="50" height="50" relative="1" as="geometry">
            <mxPoint x="149.58000000000004" y="120" as="sourcePoint" />
            <mxPoint x="149.58000000000004" y="28.039999999999964" as="targetPoint" />
          </mxGeometry>
        </mxCell>
        <mxCell id="rLoegdF59TgYcEcmEnVo-52" value="" style="endArrow=none;html=1;" edge="1" parent="rLoegdF59TgYcEcmEnVo-35">
          <mxGeometry width="50" height="50" relative="1" as="geometry">
            <mxPoint x="209.58000000000004" y="120" as="sourcePoint" />
            <mxPoint x="209.58000000000004" y="28.039999999999964" as="targetPoint" />
          </mxGeometry>
        </mxCell>
        <mxCell id="rLoegdF59TgYcEcmEnVo-53" value="" style="endArrow=none;html=1;" edge="1" parent="rLoegdF59TgYcEcmEnVo-35">
          <mxGeometry width="50" height="50" relative="1" as="geometry">
            <mxPoint x="90" y="120" as="sourcePoint" />
            <mxPoint x="30" y="28.04000000000002" as="targetPoint" />
          </mxGeometry>
        </mxCell>
        <mxCell id="rLoegdF59TgYcEcmEnVo-54" value="" style="endArrow=none;html=1;" edge="1" parent="rLoegdF59TgYcEcmEnVo-35">
          <mxGeometry width="50" height="50" relative="1" as="geometry">
            <mxPoint x="150" y="120" as="sourcePoint" />
            <mxPoint x="90" y="28.039999999999964" as="targetPoint" />
          </mxGeometry>
        </mxCell>
        <mxCell id="rLoegdF59TgYcEcmEnVo-55" value="" style="endArrow=none;html=1;" edge="1" parent="rLoegdF59TgYcEcmEnVo-35">
          <mxGeometry width="50" height="50" relative="1" as="geometry">
            <mxPoint x="210" y="120" as="sourcePoint" />
            <mxPoint x="150" y="28.039999999999964" as="targetPoint" />
          </mxGeometry>
        </mxCell>
        <mxCell id="rLoegdF59TgYcEcmEnVo-56" value="" style="endArrow=none;html=1;" edge="1" parent="rLoegdF59TgYcEcmEnVo-35">
          <mxGeometry width="50" height="50" relative="1" as="geometry">
            <mxPoint x="30" y="120" as="sourcePoint" />
            <mxPoint x="90" y="30" as="targetPoint" />
          </mxGeometry>
        </mxCell>
        <mxCell id="rLoegdF59TgYcEcmEnVo-57" value="" style="endArrow=none;html=1;" edge="1" parent="rLoegdF59TgYcEcmEnVo-35">
          <mxGeometry width="50" height="50" relative="1" as="geometry">
            <mxPoint x="90" y="118.03999999999999" as="sourcePoint" />
            <mxPoint x="150" y="28.04000000000002" as="targetPoint" />
          </mxGeometry>
        </mxCell>
        <mxCell id="rLoegdF59TgYcEcmEnVo-58" value="" style="endArrow=none;html=1;" edge="1" parent="rLoegdF59TgYcEcmEnVo-35">
          <mxGeometry width="50" height="50" relative="1" as="geometry">
            <mxPoint x="150" y="118.03999999999996" as="sourcePoint" />
            <mxPoint x="210" y="28.039999999999964" as="targetPoint" />
          </mxGeometry>
        </mxCell>
        <mxCell id="rLoegdF59TgYcEcmEnVo-59" value="" style="endArrow=none;html=1;exitX=0.5;exitY=0;exitDx=0;exitDy=0;exitPerimeter=0;" edge="1" parent="rLoegdF59TgYcEcmEnVo-35" source="rLoegdF59TgYcEcmEnVo-43">
          <mxGeometry width="50" height="50" relative="1" as="geometry">
            <mxPoint x="-20" y="78.04000000000002" as="sourcePoint" />
            <mxPoint x="30" y="28.04000000000002" as="targetPoint" />
          </mxGeometry>
        </mxCell>
        <mxCell id="rLoegdF59TgYcEcmEnVo-60" value="" style="endArrow=none;html=1;exitX=0.5;exitY=0;exitDx=0;exitDy=0;exitPerimeter=0;" edge="1" parent="rLoegdF59TgYcEcmEnVo-35">
          <mxGeometry width="50" height="50" relative="1" as="geometry">
            <mxPoint x="210" y="120" as="sourcePoint" />
            <mxPoint x="90" y="28.039999999999964" as="targetPoint" />
          </mxGeometry>
        </mxCell>
        <mxCell id="rLoegdF59TgYcEcmEnVo-61" value="" style="endArrow=none;html=1;" edge="1" parent="rLoegdF59TgYcEcmEnVo-35">
          <mxGeometry width="50" height="50" relative="1" as="geometry">
            <mxPoint x="30" y="120" as="sourcePoint" />
            <mxPoint x="150" y="30" as="targetPoint" />
          </mxGeometry>
        </mxCell>
        <mxCell id="rLoegdF59TgYcEcmEnVo-62" value="" style="endArrow=none;html=1;" edge="1" parent="rLoegdF59TgYcEcmEnVo-35">
          <mxGeometry width="50" height="50" relative="1" as="geometry">
            <mxPoint x="90" y="120" as="sourcePoint" />
            <mxPoint x="210" y="30" as="targetPoint" />
          </mxGeometry>
        </mxCell>
        <mxCell id="rLoegdF59TgYcEcmEnVo-63" value="" style="endArrow=none;html=1;" edge="1" parent="rLoegdF59TgYcEcmEnVo-35">
          <mxGeometry width="50" height="50" relative="1" as="geometry">
            <mxPoint x="210" y="120" as="sourcePoint" />
            <mxPoint x="30" y="28.04000000000002" as="targetPoint" />
          </mxGeometry>
        </mxCell>
        <mxCell id="rLoegdF59TgYcEcmEnVo-64" value="" style="endArrow=none;html=1;" edge="1" parent="rLoegdF59TgYcEcmEnVo-35">
          <mxGeometry width="50" height="50" relative="1" as="geometry">
            <mxPoint x="30" y="120" as="sourcePoint" />
            <mxPoint x="210" y="28.04000000000002" as="targetPoint" />
          </mxGeometry>
        </mxCell>
        <mxCell id="rLoegdF59TgYcEcmEnVo-65" value="" style="shape=link;html=1;exitX=0.5;exitY=0;exitDx=0;exitDy=0;exitPerimeter=0;" edge="1" parent="rLoegdF59TgYcEcmEnVo-35" source="rLoegdF59TgYcEcmEnVo-38">
          <mxGeometry width="50" height="50" relative="1" as="geometry">
            <mxPoint x="-20" y="188.04000000000002" as="sourcePoint" />
            <mxPoint x="30" y="138.04000000000002" as="targetPoint" />
          </mxGeometry>
        </mxCell>
        <mxCell id="rLoegdF59TgYcEcmEnVo-66" value="" style="shape=link;html=1;exitX=0.5;exitY=0;exitDx=0;exitDy=0;exitPerimeter=0;" edge="1" parent="rLoegdF59TgYcEcmEnVo-35">
          <mxGeometry width="50" height="50" relative="1" as="geometry">
            <mxPoint x="89.58" y="180" as="sourcePoint" />
            <mxPoint x="89.58" y="138.03999999999996" as="targetPoint" />
          </mxGeometry>
        </mxCell>
        <mxCell id="rLoegdF59TgYcEcmEnVo-67" value="" style="shape=link;html=1;exitX=0.5;exitY=0;exitDx=0;exitDy=0;exitPerimeter=0;" edge="1" parent="rLoegdF59TgYcEcmEnVo-35">
          <mxGeometry width="50" height="50" relative="1" as="geometry">
            <mxPoint x="149.58000000000004" y="178" as="sourcePoint" />
            <mxPoint x="149.58000000000004" y="136.03999999999996" as="targetPoint" />
          </mxGeometry>
        </mxCell>
        <mxCell id="rLoegdF59TgYcEcmEnVo-68" value="" style="shape=link;html=1;exitX=0.5;exitY=0;exitDx=0;exitDy=0;exitPerimeter=0;" edge="1" parent="rLoegdF59TgYcEcmEnVo-35">
          <mxGeometry width="50" height="50" relative="1" as="geometry">
            <mxPoint x="209.58000000000004" y="178" as="sourcePoint" />
            <mxPoint x="209.58000000000004" y="136.03999999999996" as="targetPoint" />
          </mxGeometry>
        </mxCell>
        <mxCell id="rLoegdF59TgYcEcmEnVo-70" value="&lt;font style=&quot;font-size: 40px&quot;&gt;…&lt;/font&gt;" style="text;html=1;align=center;verticalAlign=middle;resizable=0;points=[];autosize=1;" vertex="1" parent="1">
          <mxGeometry x="575" y="-302" width="60" height="30" as="geometry" />
        </mxCell>
        <mxCell id="rLoegdF59TgYcEcmEnVo-71" value="" style="fontColor=#0066CC;verticalAlign=top;verticalLabelPosition=bottom;labelPosition=center;align=center;html=1;outlineConnect=0;fillColor=#CCCCCC;strokeColor=#6881B3;gradientDirection=north;strokeWidth=2;shape=mxgraph.networks.switch;" vertex="1" parent="1">
          <mxGeometry x="375" y="-480" width="170" height="40" as="geometry" />
        </mxCell>
        <mxCell id="rLoegdF59TgYcEcmEnVo-72" value="" style="fontColor=#0066CC;verticalAlign=top;verticalLabelPosition=bottom;labelPosition=center;align=center;html=1;outlineConnect=0;fillColor=#CCCCCC;strokeColor=#6881B3;gradientDirection=north;strokeWidth=2;shape=mxgraph.networks.switch;" vertex="1" parent="1">
          <mxGeometry x="665" y="-480" width="170" height="40" as="geometry" />
        </mxCell>
        <mxCell id="rLoegdF59TgYcEcmEnVo-73" value="&lt;font style=&quot;font-size: 40px&quot;&gt;…&lt;/font&gt;" style="text;html=1;align=center;verticalAlign=middle;resizable=0;points=[];autosize=1;" vertex="1" parent="1">
          <mxGeometry x="575" y="-475" width="60" height="30" as="geometry" />
        </mxCell>
        <mxCell id="rLoegdF59TgYcEcmEnVo-74" value="" style="shape=link;html=1;strokeWidth=3;strokeColor=#66B2FF;" edge="1" parent="1">
          <mxGeometry width="50" height="50" relative="1" as="geometry">
            <mxPoint x="100" y="-361" as="sourcePoint" />
            <mxPoint x="155" y="-440" as="targetPoint" />
          </mxGeometry>
        </mxCell>
        <mxCell id="rLoegdF59TgYcEcmEnVo-75" value="" style="shape=link;html=1;strokeWidth=3;strokeColor=#66B2FF;exitX=0.188;exitY=0.008;exitDx=0;exitDy=0;entryX=0.5;entryY=1;entryDx=0;entryDy=0;entryPerimeter=0;exitPerimeter=0;" edge="1" parent="1" source="rLoegdF59TgYcEcmEnVo-2" target="LMLSj2MRwrwGWkM6ZcZf-3">
          <mxGeometry width="50" height="50" relative="1" as="geometry">
            <mxPoint x="110" y="-351" as="sourcePoint" />
            <mxPoint x="165" y="-430" as="targetPoint" />
          </mxGeometry>
        </mxCell>
        <mxCell id="rLoegdF59TgYcEcmEnVo-76" value="" style="shape=link;html=1;strokeWidth=3;strokeColor=#66B2FF;entryX=0.9;entryY=1;entryDx=0;entryDy=0;entryPerimeter=0;" edge="1" parent="1" target="LMLSj2MRwrwGWkM6ZcZf-3">
          <mxGeometry width="50" height="50" relative="1" as="geometry">
            <mxPoint x="660" y="-365" as="sourcePoint" />
            <mxPoint x="200" y="-430" as="targetPoint" />
          </mxGeometry>
        </mxCell>
        <mxCell id="rLoegdF59TgYcEcmEnVo-77" value="" style="shape=link;html=1;strokeWidth=3;strokeColor=#66B2FF;exitX=0.354;exitY=0;exitDx=0;exitDy=0;exitPerimeter=0;" edge="1" parent="1" source="LMLSj2MRwrwGWkM6ZcZf-52">
          <mxGeometry width="50" height="50" relative="1" as="geometry">
            <mxPoint x="359" y="-360" as="sourcePoint" />
            <mxPoint x="414" y="-439" as="targetPoint" />
          </mxGeometry>
        </mxCell>
        <mxCell id="rLoegdF59TgYcEcmEnVo-80" value="" style="shape=link;html=1;strokeWidth=3;strokeColor=#66B2FF;entryX=0.5;entryY=1;entryDx=0;entryDy=0;entryPerimeter=0;exitX=0.5;exitY=0;exitDx=0;exitDy=0;" edge="1" parent="1" source="rLoegdF59TgYcEcmEnVo-2">
          <mxGeometry width="50" height="50" relative="1" as="geometry">
            <mxPoint x="720" y="-365" as="sourcePoint" />
            <mxPoint x="450" y="-445" as="targetPoint" />
          </mxGeometry>
        </mxCell>
        <mxCell id="rLoegdF59TgYcEcmEnVo-81" value="" style="shape=link;html=1;strokeWidth=3;strokeColor=#66B2FF;exitX=0.633;exitY=-0.008;exitDx=0;exitDy=0;exitPerimeter=0;" edge="1" parent="1" source="rLoegdF59TgYcEcmEnVo-36" target="rLoegdF59TgYcEcmEnVo-71">
          <mxGeometry width="50" height="50" relative="1" as="geometry">
            <mxPoint x="470" y="-350" as="sourcePoint" />
            <mxPoint x="500" y="-435" as="targetPoint" />
          </mxGeometry>
        </mxCell>
        <mxCell id="rLoegdF59TgYcEcmEnVo-82" value="" style="shape=link;html=1;strokeWidth=3;strokeColor=#66B2FF;exitX=0.779;exitY=-0.004;exitDx=0;exitDy=0;exitPerimeter=0;entryX=0.1;entryY=1;entryDx=0;entryDy=0;entryPerimeter=0;" edge="1" parent="1" source="LMLSj2MRwrwGWkM6ZcZf-52" target="rLoegdF59TgYcEcmEnVo-72">
          <mxGeometry width="50" height="50" relative="1" as="geometry">
            <mxPoint x="480" y="-340" as="sourcePoint" />
            <mxPoint x="470" y="-425" as="targetPoint" />
          </mxGeometry>
        </mxCell>
        <mxCell id="rLoegdF59TgYcEcmEnVo-83" value="" style="shape=link;html=1;strokeWidth=3;strokeColor=#66B2FF;" edge="1" parent="1" target="rLoegdF59TgYcEcmEnVo-72">
          <mxGeometry width="50" height="50" relative="1" as="geometry">
            <mxPoint x="780" y="-360" as="sourcePoint" />
            <mxPoint x="760" y="-430" as="targetPoint" />
          </mxGeometry>
        </mxCell>
        <mxCell id="rLoegdF59TgYcEcmEnVo-84" value="" style="shape=link;html=1;strokeWidth=3;strokeColor=#66B2FF;entryX=0.9;entryY=1;entryDx=0;entryDy=0;entryPerimeter=0;" edge="1" parent="1" target="rLoegdF59TgYcEcmEnVo-72">
          <mxGeometry width="50" height="50" relative="1" as="geometry">
            <mxPoint x="838" y="-360" as="sourcePoint" />
            <mxPoint x="490" y="-405" as="targetPoint" />
          </mxGeometry>
        </mxCell>
        <mxCell id="rLoegdF59TgYcEcmEnVo-85" value="&lt;div style=&quot;font-size: 18px&quot;&gt;&lt;font style=&quot;font-size: 18px&quot; face=&quot;Times New Roman&quot;&gt;OCS &lt;br&gt;&lt;/font&gt;&lt;/div&gt;&lt;div style=&quot;font-size: 18px&quot;&gt;&lt;font style=&quot;font-size: 18px&quot; face=&quot;Times New Roman&quot;&gt;Layer&lt;/font&gt;&lt;/div&gt;" style="text;html=1;align=center;verticalAlign=middle;resizable=0;points=[];autosize=1;" vertex="1" parent="1">
          <mxGeometry y="-480" width="60" height="40" as="geometry" />
        </mxCell>
        <mxCell id="rLoegdF59TgYcEcmEnVo-86" value="&lt;div style=&quot;font-size: 18px&quot;&gt;&lt;font style=&quot;font-size: 18px&quot; face=&quot;Times New Roman&quot;&gt;Aggr&lt;br&gt;&lt;/font&gt;&lt;/div&gt;&lt;div style=&quot;font-size: 18px&quot;&gt;&lt;font style=&quot;font-size: 18px&quot; face=&quot;Times New Roman&quot;&gt;Layer&lt;/font&gt;&lt;/div&gt;" style="text;html=1;align=center;verticalAlign=middle;resizable=0;points=[];autosize=1;" vertex="1" parent="1">
          <mxGeometry y="-360" width="60" height="40" as="geometry" />
        </mxCell>
        <mxCell id="rLoegdF59TgYcEcmEnVo-87" value="&lt;div style=&quot;font-size: 18px&quot;&gt;&lt;font style=&quot;font-size: 18px&quot; face=&quot;Times New Roman&quot;&gt;ToR &lt;br&gt;&lt;/font&gt;&lt;/div&gt;&lt;div style=&quot;font-size: 18px&quot;&gt;&lt;font style=&quot;font-size: 18px&quot; face=&quot;Times New Roman&quot;&gt;Layer&lt;/font&gt;&lt;/div&gt;" style="text;html=1;align=center;verticalAlign=middle;resizable=0;points=[];autosize=1;" vertex="1" parent="1">
          <mxGeometry y="-250" width="60" height="40" as="geometry" />
        </mxCell>
        <mxCell id="rLoegdF59TgYcEcmEnVo-89" value="&lt;div style=&quot;font-size: 18px&quot;&gt;&lt;font style=&quot;font-size: 18px&quot; face=&quot;Times New Roman&quot;&gt;Servers &lt;br&gt;&lt;/font&gt;&lt;/div&gt;" style="text;html=1;align=center;verticalAlign=middle;resizable=0;points=[];autosize=1;" vertex="1" parent="1">
          <mxGeometry x="-5" y="-160" width="70" height="20" as="geometry" />
        </mxCell>
        <mxCell id="rLoegdF59TgYcEcmEnVo-90" value="" style="shape=curlyBracket;whiteSpace=wrap;html=1;rounded=1;direction=north;" vertex="1" parent="1">
          <mxGeometry x="70" y="-90" width="240" height="20" as="geometry" />
        </mxCell>
        <mxCell id="rLoegdF59TgYcEcmEnVo-91" value="&lt;div style=&quot;font-size: 18px&quot;&gt;&lt;font style=&quot;font-size: 18px&quot; face=&quot;Times New Roman&quot;&gt;Pod 1 &lt;br&gt;&lt;/font&gt;&lt;/div&gt;" style="text;html=1;align=center;verticalAlign=middle;resizable=0;points=[];autosize=1;" vertex="1" parent="1">
          <mxGeometry x="163" y="-70" width="60" height="20" as="geometry" />
        </mxCell>
        <mxCell id="rLoegdF59TgYcEcmEnVo-92" value="" style="shape=curlyBracket;whiteSpace=wrap;html=1;rounded=1;direction=north;" vertex="1" parent="1">
          <mxGeometry x="340" y="-90" width="240" height="20" as="geometry" />
        </mxCell>
        <mxCell id="rLoegdF59TgYcEcmEnVo-93" value="&lt;div style=&quot;font-size: 18px&quot;&gt;&lt;font style=&quot;font-size: 18px&quot; face=&quot;Times New Roman&quot;&gt;Pod 2 &lt;/font&gt;&lt;/div&gt;" style="text;html=1;align=center;verticalAlign=middle;resizable=0;points=[];autosize=1;" vertex="1" parent="1">
          <mxGeometry x="433" y="-70" width="60" height="20" as="geometry" />
        </mxCell>
        <mxCell id="rLoegdF59TgYcEcmEnVo-94" value="" style="shape=curlyBracket;whiteSpace=wrap;html=1;rounded=1;direction=north;" vertex="1" parent="1">
          <mxGeometry x="630" y="-90" width="240" height="20" as="geometry" />
        </mxCell>
        <mxCell id="rLoegdF59TgYcEcmEnVo-95" value="&lt;div style=&quot;font-size: 18px&quot;&gt;&lt;font style=&quot;font-size: 18px&quot; face=&quot;Times New Roman&quot;&gt;Pod n &lt;br&gt;&lt;/font&gt;&lt;/div&gt;" style="text;html=1;align=center;verticalAlign=middle;resizable=0;points=[];autosize=1;" vertex="1" parent="1">
          <mxGeometry x="723" y="-70" width="60" height="20" as="geometry" />
        </mxCell>
      </root>
    </mxGraphModel>
  </diagram>
</mxfile>
